<?xml version="1.0" encoding="UTF-8" standalone="no"?>
<!-- Created with Inkscape (http://www.inkscape.org/) -->

<svg
   width="232.11258mm"
   height="140.70268mm"
   viewBox="0 0 232.11258 140.70268"
   version="1.1"
   id="svg47230"
   xmlns="http://www.w3.org/2000/svg"
   xmlns:svg="http://www.w3.org/2000/svg">
  <defs
     id="defs47227">
    <clipPath
       clipPathUnits="userSpaceOnUse"
       id="clipPath49884">
      <path
         d="M 0,0 V 357.16995 H 215.43591 V 0 Z"
         id="path49882" />
    </clipPath>
    <clipPath
       clipPathUnits="userSpaceOnUse"
       id="clipPath49942">
      <path
         d="M 0,0 H 14.17323 V 14.17323 H 0 Z"
         id="path49940" />
    </clipPath>
    <clipPath
       clipPathUnits="userSpaceOnUse"
       id="clipPath49946">
      <path
         d="M 0,0 H 13.9275 V -12.94075 H 0 Z"
         clip-rule="evenodd"
         id="path49944" />
    </clipPath>
    <clipPath
       clipPathUnits="userSpaceOnUse"
       id="clipPath49950">
      <path
         d="m 0,-12.94075 h 14.17323 v 25.8815 H 0 Z"
         id="path49948" />
    </clipPath>
    <clipPath
       clipPathUnits="userSpaceOnUse"
       id="clipPath55370">
      <path
         d="M 0,0 V 357.16995 H 215.43591 V 0 Z"
         id="path55368" />
    </clipPath>
    <clipPath
       clipPathUnits="userSpaceOnUse"
       id="clipPath55426">
      <path
         d="M 0,0 H 14.17323 V 14.17323 H 0 Z"
         id="path55424" />
    </clipPath>
    <clipPath
       clipPathUnits="userSpaceOnUse"
       id="clipPath59272">
      <path
         d="M 0,0 V 357.16995 H 215.43591 V 0 Z"
         id="path59270" />
    </clipPath>
    <clipPath
       clipPathUnits="userSpaceOnUse"
       id="clipPath59328">
      <path
         d="M 0,0 H 14.17323 V 14.17323 H 0 Z"
         id="path59326" />
    </clipPath>
    <clipPath
       clipPathUnits="userSpaceOnUse"
       id="clipPath59332">
      <path
         d="M 0,0 H 14.0585 V -13.789 H 0 Z"
         clip-rule="evenodd"
         id="path59330" />
    </clipPath>
    <clipPath
       clipPathUnits="userSpaceOnUse"
       id="clipPath59336">
      <path
         d="M 0,-13.789 H 14.17323 V 13.789 H 0 Z"
         id="path59334" />
    </clipPath>
  </defs>
  <g
     id="layer1"
     transform="translate(6.2153036,-75.994941)">
    <g
       id="g49874"
       transform="matrix(0.34218468,-0.08580094,-0.08580094,-0.34218468,24.430214,216.69763)">
      <g
         id="g49876">
        <g
           id="g49878">
          <g
             id="g49880"
             clip-path="url(#clipPath49884)">
            <g
               id="g49886">
              <path
                 d="M 0,0 V 357.16995 H 215.43591 V 0 Z"
                 style="fill:#ef7d6e;fill-opacity:1;fill-rule:nonzero;stroke:none"
                 id="path49888" />
            </g>
            <g
               id="g49890">
              <g
                 id="g49892"
                 transform="translate(-80.022,103.681)">
                <g
                   id="g49894">
                  <g
                     id="g49896"
                     transform="translate(200.563)">
                    <g
                       id="g49898"
                       transform="matrix(0.70709,0.70709,-0.70709,0.70709,0,0)">
                      <g
                         id="g49900"
                         transform="scale(15.53734)">
                        <g
                           id="g49902"
                           transform="translate(-120.541,-103.681)">
                          <text
                             xml:space="preserve"
                             transform="matrix(1,0,0,-1,120.541,103.681)"
                             style="font-variant:normal;font-weight:bold;font-size:24.7871px;font-family:'Josefin Sans';-inkscape-font-specification:JosefinSans-Bold;writing-mode:lr-tb;fill:#f4a59b;fill-opacity:1;fill-rule:nonzero;stroke:none"
                             id="text49906"><tspan
                               x="0"
                               y="0"
                               id="tspan49904">J</tspan></text>
                          <g
                             id="g49908"
                             transform="translate(120.541,103.681)" />
                        </g>
                      </g>
                    </g>
                    <g
                       id="g49910"
                       transform="translate(-200.563)" />
                  </g>
                </g>
                <g
                   id="g49912"
                   transform="translate(80.022,-103.681)" />
              </g>
            </g>
            <path
               d="m 19.84267,26.36243 v 304.4451 c 0,3.6008 2.91896,6.51976 6.51976,6.51976 h 162.71104 c 3.6008,0 6.51976,-2.91896 6.51976,-6.51976 V 26.36243 c 0,-3.6008 -2.91896,-6.51976 -6.51976,-6.51976 H 26.36243 c -3.6008,0 -6.51976,2.91896 -6.51976,6.51976 z"
               style="fill:none;stroke:#000000;stroke-width:0.3985;stroke-linecap:butt;stroke-linejoin:miter;stroke-miterlimit:10;stroke-dasharray:none;stroke-opacity:1"
               id="path49914" />
            <g
               id="g49916">
              <g
                 id="g49918"
                 transform="translate(28.547,303.104)">
                <g
                   id="g49920">
                  <g
                     id="g49922"
                     transform="translate(2.223)">
                    <g
                       id="g49924"
                       transform="matrix(1.5529,0,0,1.5529,-47.782733,-470.6902)">
                      <text
                         xml:space="preserve"
                         transform="matrix(1,0,0,-1,30.77,303.104)"
                         style="font-variant:normal;font-weight:bold;font-size:24.7871px;font-family:'Josefin Sans';-inkscape-font-specification:JosefinSans-Bold;writing-mode:lr-tb;fill:#000000;fill-opacity:1;fill-rule:nonzero;stroke:none"
                         id="text49928"><tspan
                           x="0"
                           y="0"
                           id="tspan49926">J</tspan></text>
                      <g
                         id="g49930"
                         transform="translate(30.77,303.104)" />
                    </g>
                    <g
                       id="g49932"
                       transform="translate(-2.223,-35.216)">
                      <g
                         id="g49934"
                         transform="scale(2.00024)">
                        <g
                           id="g49936">
                          <g
                             id="g49938" />
                          <g
                             id="g49990">
                            <g
                               clip-path="url(#clipPath49942)"
                               id="g49988">
                              <g
                                 id="g49986">
                                <g
                                   id="g49984">
                                <g
                                   transform="translate(0.098,13.61798)"
                                   id="g49982">
                                <g
                                   id="g49980">
                                <g
                                   clip-path="url(#clipPath49946)"
                                   id="g49978">
                                <g
                                   transform="translate(0,-12.94075)"
                                   id="g49976">
                                <g
                                   id="g49974">
                                <g
                                   id="g49952" />
                                <g
                                   id="g49972">
                                <g
                                   clip-path="url(#clipPath49950)"
                                   id="g49970">
                                <g
                                   transform="translate(0,12.94075)"
                                   id="g49960">
                                <g
                                   id="g49958">
                                <g
                                   id="g49956">
                                <path
                                   d="m 12.867,-6.73375 c -1.223,1.223 -3.102,1.391 -4.508,0.508 -0.035,0.176 -0.121,0.34 -0.258,0.476 l -5.465,5.465 c -0.379,0.379 -0.988,0.379 -1.363,0.004 -0.183,-0.184 -0.285,-0.426 -0.285,-0.684 0,-0.164 0.043,-0.316 0.121,-0.457 l -0.824,-0.824 C 0.101,-2.42875 0,-2.67175 0,-2.93275 c 0,-0.258 0.101,-0.504 0.285,-0.684 0.187,-0.191 0.437,-0.285 0.687,-0.285 0.246,0 0.496,0.094 0.688,0.285 l 0.789,0.793 0.133,-0.133 -0.793,-0.793 c -0.379,-0.379 -0.379,-0.992 0,-1.371 0.187,-0.191 0.437,-0.285 0.687,-0.285 0.246,0 0.496,0.094 0.684,0.285 l 0.793,0.793 2.785,-2.785 c 0.133,-0.133 0.297,-0.223 0.476,-0.258 -0.363,-0.574 -0.558,-1.238 -0.558,-1.933 0,-0.973 0.379,-1.887 1.066,-2.571 0.707,-0.711 1.641,-1.066 2.571,-1.066 0.929,0 1.863,0.355 2.574,1.066 1.414,1.418 1.414,3.723 0,5.141 z m -10.094,2 c -0.16,-0.16 -0.437,-0.16 -0.598,0 -0.164,0.164 -0.164,0.434 0,0.598 l 0.793,0.793 0.598,-0.598 z m -1.504,1.504 c -0.164,-0.164 -0.433,-0.164 -0.597,0 -0.079,0.078 -0.122,0.183 -0.122,0.297 0,0.113 0.043,0.218 0.122,0.3 l 0.792,0.793 0.598,-0.597 z m 3.071,-0.711 -1.739,1.738 -0.941,0.946 c -0.078,0.078 -0.121,0.179 -0.121,0.292 0,0.11 0.043,0.215 0.121,0.293 0.082,0.082 0.187,0.122 0.293,0.122 0.105,0 0.215,-0.04 0.293,-0.122 l 5.468,-5.464 c 0.161,-0.164 0.161,-0.426 0,-0.59 -0.156,-0.157 -0.429,-0.157 -0.589,0 z m 8.136,-7.547 c -1.203,-1.207 -3.164,-1.207 -4.367,0 -0.582,0.582 -0.906,1.359 -0.906,2.184 0,0.824 0.324,1.601 0.906,2.183 0.602,0.602 1.395,0.903 2.184,0.903 0.793,0 1.582,-0.301 2.183,-0.903 1.203,-1.203 1.203,-3.164 0,-4.367 z"
                                   style="fill:#231f20;fill-opacity:1;fill-rule:nonzero;stroke:none"
                                   id="path49954" />
                                </g>
                                </g>
                                </g>
                                <g
                                   transform="translate(10.316,5.254)"
                                   id="g49968">
                                <g
                                   id="g49966">
                                <g
                                   id="g49964">
                                <path
                                   d="M 2.254,-0.387 C 1.738,0.129 0.902,0.129 0.387,-0.387 0.137,-0.637 0,-0.969 0,-1.32 0,-1.672 0.137,-2.004 0.387,-2.254 0.645,-2.512 0.984,-2.641 1.32,-2.641 c 0.336,0 0.676,0.129 0.934,0.387 0.25,0.25 0.387,0.582 0.387,0.934 0,0.351 -0.137,0.683 -0.387,0.933 z m -0.387,-1.48 c -0.304,-0.297 -0.793,-0.297 -1.093,0 -0.145,0.148 -0.223,0.339 -0.223,0.547 0,0.207 0.078,0.398 0.223,0.546 0.152,0.149 0.347,0.223 0.546,0.223 0.196,0 0.395,-0.074 0.547,-0.223 0.145,-0.148 0.223,-0.339 0.223,-0.546 0,-0.208 -0.078,-0.399 -0.223,-0.547 z"
                                   style="fill:#231f20;fill-opacity:1;fill-rule:nonzero;stroke:none"
                                   id="path49962" />
                                </g>
                                </g>
                                </g>
                                </g>
                                </g>
                                </g>
                                </g>
                                </g>
                                </g>
                                </g>
                                </g>
                              </g>
                            </g>
                          </g>
                        </g>
                      </g>
                      <g
                         id="g49992"
                         transform="translate(0,35.216)" />
                    </g>
                  </g>
                </g>
                <g
                   id="g49994"
                   transform="translate(-28.547,-303.104)" />
              </g>
            </g>
            <g
               id="g49996">
              <g
                 id="g49998"
                 transform="translate(107.916,325.784)">
                <g
                   id="g50000">
                  <g
                     id="g50002"
                     transform="translate(12.454)">
                    <g
                       id="g50004"
                       transform="matrix(1.47612,0,0,1.47612,-177.68056,-480.89628)">
                      <text
                         xml:space="preserve"
                         transform="matrix(1,0,0,-1,120.37,325.784)"
                         style="font-variant:normal;font-weight:normal;font-size:4.9813px;font-family:'Josefin Sans';-inkscape-font-specification:JosefinSans-Regular;writing-mode:lr-tb;fill:#000000;fill-opacity:1;fill-rule:nonzero;stroke:none"
                         id="text50008"><tspan
                           x="0 1.2901567 4.2091985 6.4806714 8.961359 10.874178 13.79322 16.064693 18.336164 20.926441 22.953831 25.813097 30.251434 32.278824 34.869099 37.140572 38.923878 41.514153 43.302441"
                           y="0"
                           id="tspan50006">jack/access&amp;secrets</tspan></text>
                      <g
                         id="g50010"
                         transform="translate(120.37,325.784)" />
                    </g>
                    <g
                       id="g50012"
                       transform="translate(-12.454)" />
                  </g>
                </g>
                <g
                   id="g50014"
                   transform="translate(-107.916,-325.784)" />
              </g>
            </g>
            <g
               id="g50016">
              <g
                 id="g50018"
                 transform="translate(51.223,235.353)">
                <g
                   id="g50020">
                  <g
                     id="g50022"
                     transform="translate(-51.223,-235.353)">
                    <text
                       xml:space="preserve"
                       transform="matrix(1,0,0,-1,66.516,235.353)"
                       style="font-variant:normal;font-weight:normal;font-size:14.3462px;font-family:'Josefin Sans';-inkscape-font-specification:JosefinSans-Regular;writing-mode:lr-tb;fill:#000000;fill-opacity:1;fill-rule:nonzero;stroke:none"
                       id="text50032"><tspan
                         x="0 12.294693 20.127718 28.835861 37.343159 44.803181 53.310478 56.954414 64.586594 71.673615 83.509232 90.969254 98.902702"
                         y="0"
                         id="tspan50024">Ourdeployment</tspan><tspan
                         x="-0.14399999 8.2628736 13.657044 18.807331 22.451265 27.515474 35.922348 42.464214 47.614498 56.767376 63.309242 71.127922 79.061371 84.211655 92.61853 96.262466"
                         y="14.502"
                         id="tspan50026">artifactscontain</tspan><tspan
                         x="2.2349999 8.0739031 15.533927 22.075794 27.211735 34.671757 39.822044 48.974918 54.125206 62.058655 70.46553 78.94413 85.486 93.892868"
                         y="29.003"
                         id="tspan50028">secretsthatcan</tspan><tspan
                         x="10.96 19.467297 30.241293 37.54351 44.214493 49.364777 54.615486 63.022358 69.564224 74.714516 82.174538 90.681831"
                         y="43.505001"
                         id="tspan50030">beextracted.</tspan></text>
                    <g
                       id="g50034"
                       transform="translate(51.223,235.353)" />
                  </g>
                </g>
                <g
                   id="g50036"
                   transform="translate(-51.223,-235.353)" />
              </g>
            </g>
            <g
               id="g50038">
              <g
                 id="g50040"
                 transform="rotate(90,5.839,36.653)">
                <g
                   id="g50042">
                  <g
                     id="g50044"
                     transform="translate(-42.492,-30.814)">
                    <text
                       xml:space="preserve"
                       transform="matrix(1,0,0,-1,42.492,30.814)"
                       style="font-variant:normal;font-weight:normal;font-size:20.6626px;font-family:'Josefin Sans';-inkscape-font-specification:JosefinSans-Regular;writing-mode:lr-tb;fill:#fad6d2;fill-opacity:1;fill-rule:nonzero;stroke:none"
                       id="text50048"><tspan
                         x="0 12.025633 22.770185 32.192329 39.589542 50.334095 57.751968 69.488327 74.736626 89.469055 101.57734 109.34648 116.76435 122.01265 129.30655 141.41484 150.83698 158.25485"
                         y="0"
                         id="tspan50046">Secretsinartifacts</tspan></text>
                    <g
                       id="g50050"
                       transform="translate(42.492,30.814)" />
                  </g>
                </g>
                <g
                   id="g50052"
                   transform="translate(-42.492,-30.814)" />
              </g>
            </g>
          </g>
        </g>
      </g>
    </g>
    <g
       id="g55360"
       transform="matrix(0.35277777,0,0,-0.35277777,71.892128,203.31423)">
      <g
         id="g55362">
        <g
           id="g55364">
          <g
             id="g55366"
             clip-path="url(#clipPath55370)">
            <g
               id="g55372">
              <path
                 d="M 0,0 V 357.16995 H 215.43591 V 0 Z"
                 style="fill:#3dc099;fill-opacity:1;fill-rule:nonzero;stroke:none"
                 id="path55374" />
            </g>
            <g
               id="g55376">
              <g
                 id="g55378"
                 transform="translate(-80.022,58.651)">
                <g
                   id="g55380">
                  <g
                     id="g55382"
                     transform="translate(200.588)">
                    <g
                       id="g55384"
                       transform="matrix(0.70709,0.70709,-0.70709,0.70709,0,0)">
                      <g
                         id="g55386"
                         transform="scale(16.95508)">
                        <g
                           id="g55388"
                           transform="translate(-120.566,-58.651)">
                          <text
                             xml:space="preserve"
                             transform="matrix(1,0,0,-1,120.566,58.651)"
                             style="font-variant:normal;font-weight:bold;font-size:24.7871px;font-family:'Josefin Sans';-inkscape-font-specification:JosefinSans-Bold;writing-mode:lr-tb;fill:#7ad4b9;fill-opacity:1;fill-rule:nonzero;stroke:none"
                             id="text55392"><tspan
                               x="0"
                               y="0"
                               id="tspan55390">5</tspan></text>
                          <g
                             id="g55394"
                             transform="translate(120.566,58.651)" />
                        </g>
                      </g>
                    </g>
                    <g
                       id="g55396"
                       transform="translate(-200.588)" />
                  </g>
                </g>
                <g
                   id="g55398"
                   transform="translate(80.022,-58.651)" />
              </g>
            </g>
            <path
               d="m 19.84267,26.36243 v 304.4451 c 0,3.6008 2.91896,6.51976 6.51976,6.51976 h 162.71104 c 3.6008,0 6.51976,-2.91896 6.51976,-6.51976 V 26.36243 c 0,-3.6008 -2.91896,-6.51976 -6.51976,-6.51976 H 26.36243 c -3.6008,0 -6.51976,2.91896 -6.51976,6.51976 z"
               style="fill:none;stroke:#000000;stroke-width:0.3985;stroke-linecap:butt;stroke-linejoin:miter;stroke-miterlimit:10;stroke-dasharray:none;stroke-opacity:1"
               id="path55400" />
            <g
               id="g55402">
              <g
                 id="g55404"
                 transform="translate(28.547,303.105)">
                <g
                   id="g55406">
                  <g
                     id="g55408"
                     transform="matrix(1.69432,0,0,1.69432,-48.367753,-513.55686)">
                    <text
                       xml:space="preserve"
                       transform="matrix(1,0,0,-1,28.547,303.105)"
                       style="font-variant:normal;font-weight:bold;font-size:24.7871px;font-family:'Josefin Sans';-inkscape-font-specification:JosefinSans-Bold;writing-mode:lr-tb;fill:#000000;fill-opacity:1;fill-rule:nonzero;stroke:none"
                       id="text55412"><tspan
                         x="0"
                         y="0"
                         id="tspan55410">5</tspan></text>
                    <g
                       id="g55414"
                       transform="translate(28.547,303.105)" />
                  </g>
                  <g
                     id="g55416"
                     transform="translate(0,-29.808)">
                    <g
                       id="g55418"
                       transform="scale(2.00024)">
                      <g
                         id="g55420">
                        <g
                           id="g55422" />
                        <g
                           id="g55440">
                          <g
                             clip-path="url(#clipPath55426)"
                             id="g55438">
                            <g
                               id="g55436">
                              <g
                                 id="g55434">
                                <g
                                   transform="translate(0.051,14.01323)"
                                   id="g55432">
                                <g
                                   id="g55430">
                                <path
                                   d="M 8.476,-13.965 H 5.484 c -0.601,0 -1.094,0.492 -1.094,1.094 v 3.019 c 0,0.157 -0.125,0.282 -0.277,0.282 H 1.094 C 0.488,-9.57 0,-9.082 0,-8.477 v 2.989 c 0,0.605 0.488,1.093 1.094,1.093 h 3.019 c 0.152,0 0.277,0.129 0.277,0.282 v 3.019 C 4.39,-0.488 4.883,0 5.484,0 H 8.476 C 9.078,0 9.57,-0.488 9.57,-1.094 v -3.019 c 0,-0.153 0.125,-0.282 0.281,-0.282 h 3.02 c 0.601,0 1.094,-0.488 1.094,-1.093 v -2.989 c 0,-0.605 -0.493,-1.093 -1.094,-1.093 H 9.851 C 9.695,-9.57 9.57,-9.695 9.57,-9.852 v -3.019 c 0,-0.602 -0.492,-1.094 -1.094,-1.094 z m -7.382,9.223 c -0.415,0 -0.747,-0.332 -0.747,-0.746 v -2.989 c 0,-0.41 0.332,-0.746 0.747,-0.746 h 3.019 c 0.344,0 0.629,-0.281 0.629,-0.629 v -3.019 c 0,-0.41 0.332,-0.746 0.742,-0.746 h 2.992 c 0.411,0 0.743,0.336 0.743,0.746 v 3.019 c 0,0.348 0.285,0.629 0.632,0.629 h 3.02 c 0.41,0 0.742,0.336 0.742,0.746 v 2.989 c 0,0.414 -0.332,0.746 -0.742,0.746 h -3.02 c -0.347,0 -0.632,0.281 -0.632,0.629 v 3.019 c 0,0.41 -0.332,0.746 -0.743,0.746 H 5.484 c -0.41,0 -0.742,-0.336 -0.742,-0.746 v -3.019 c 0,-0.348 -0.285,-0.629 -0.629,-0.629 z M 8.476,-13.5 H 5.484 c -0.344,0 -0.629,0.281 -0.629,0.629 v 3.019 c 0,0.41 -0.332,0.746 -0.742,0.746 H 1.094 c -0.348,0 -0.633,0.282 -0.633,0.629 v 2.989 c 0,0.347 0.285,0.628 0.633,0.628 h 3.019 c 0.41,0 0.742,0.336 0.742,0.747 v 3.019 c 0,0.348 0.285,0.629 0.629,0.629 h 2.992 c 0.348,0 0.629,-0.281 0.629,-0.629 v -3.019 c 0,-0.411 0.332,-0.747 0.746,-0.747 h 3.02 c 0.344,0 0.629,-0.281 0.629,-0.628 v -2.989 c 0,-0.347 -0.285,-0.629 -0.629,-0.629 h -3.02 c -0.414,0 -0.746,-0.336 -0.746,-0.746 v -3.019 c 0,-0.348 -0.281,-0.629 -0.629,-0.629 z m -7.382,8.293 c -0.157,0 -0.282,-0.125 -0.282,-0.281 v -2.989 c 0,-0.152 0.125,-0.281 0.282,-0.281 h 3.019 c 0.602,0 1.094,-0.488 1.094,-1.094 v -3.019 c 0,-0.153 0.125,-0.281 0.277,-0.281 h 2.992 c 0.153,0 0.278,0.128 0.278,0.281 v 3.019 c 0,0.606 0.492,1.094 1.097,1.094 h 3.02 c 0.152,0 0.277,0.129 0.277,0.281 v 2.989 c 0,0.156 -0.125,0.281 -0.277,0.281 h -3.02 c -0.605,0 -1.097,0.492 -1.097,1.094 v 3.019 c 0,0.156 -0.125,0.281 -0.278,0.281 H 5.484 c -0.152,0 -0.277,-0.125 -0.277,-0.281 v -3.019 c 0,-0.602 -0.492,-1.094 -1.094,-1.094 z"
                                   style="fill:#231f20;fill-opacity:1;fill-rule:nonzero;stroke:none"
                                   id="path55428" />
                                </g>
                                </g>
                              </g>
                            </g>
                          </g>
                        </g>
                      </g>
                    </g>
                    <g
                       id="g55442"
                       transform="translate(0,29.808)" />
                  </g>
                </g>
                <g
                   id="g55444"
                   transform="translate(-28.547,-303.105)" />
              </g>
            </g>
            <g
               id="g55446">
              <g
                 id="g55448"
                 transform="translate(107.916,325.784)">
                <g
                   id="g55450">
                  <g
                     id="g55452"
                     transform="translate(37.398)">
                    <g
                       id="g55454"
                       transform="matrix(1.47612,0,0,1.47612,-214.5009,-480.89628)">
                      <text
                         xml:space="preserve"
                         transform="matrix(1,0,0,-1,145.314,325.784)"
                         style="font-variant:normal;font-weight:normal;font-size:4.9813px;font-family:'Josefin Sans';-inkscape-font-specification:JosefinSans-Regular;writing-mode:lr-tb;fill:#000000;fill-opacity:1;fill-rule:nonzero;stroke:none"
                         id="text55458"><tspan
                           x="0 2.889154 5.3001032 7.8903794 9.8031988 11.586504 14.17678 16.448252 19.098305 21.509253 24.099529 25.972498"
                           y="0"
                           id="tspan55456">fve/recovery</tspan></text>
                      <g
                         id="g55460"
                         transform="translate(145.314,325.784)" />
                    </g>
                    <g
                       id="g55462"
                       transform="translate(-37.398)" />
                  </g>
                </g>
                <g
                   id="g55464"
                   transform="translate(-107.916,-325.784)" />
              </g>
            </g>
            <g
               id="g55466">
              <g
                 id="g55468"
                 transform="translate(51.223,235.353)">
                <g
                   id="g55470">
                  <g
                     id="g55472"
                     transform="translate(-51.223,-235.353)">
                    <text
                       xml:space="preserve"
                       transform="matrix(1,0,0,-1,81.691,235.353)"
                       style="font-variant:normal;font-weight:normal;font-size:14.3462px;font-family:'Josefin Sans';-inkscape-font-specification:JosefinSans-Regular;writing-mode:lr-tb;fill:#000000;fill-opacity:1;fill-rule:nonzero;stroke:none"
                       id="text55480"><tspan
                         x="0 13.112427 23.886423 31.819872 40.226746 47.170307 57.958649 65.892097"
                         y="0"
                         id="tspan55474">Wehaveno</tspan><tspan
                         x="-10.007 -1.4997034 6.9071698 13.449037 20.593445 28.42647 36.933765 46.086643 53.905319 62.670849 70.489525 78.322556"
                         y="14.502"
                         id="tspan55476">backupsofour</tspan><tspan
                         x="-17.349001 -8.9421272 -0.43483019 8.0724669 11.716401 15.360336 21.902203 30.309076 35.459362 39.103298 46.921974 58.169395 66.676697 75.083565 80.233856 88.640724"
                         y="29.003"
                         id="tspan55478">applicationdata.</tspan></text>
                    <g
                       id="g55482"
                       transform="translate(51.223,235.353)" />
                  </g>
                </g>
                <g
                   id="g55484"
                   transform="translate(-51.223,-235.353)" />
              </g>
            </g>
            <g
               id="g55486">
              <g
                 id="g55488"
                 transform="rotate(90,5.839,36.653)">
                <g
                   id="g55490">
                  <g
                     id="g55492"
                     transform="translate(-42.492,-30.814)">
                    <text
                       xml:space="preserve"
                       transform="matrix(1,0,0,-1,42.492,30.814)"
                       style="font-variant:normal;font-weight:normal;font-size:20.6626px;font-family:'Josefin Sans';-inkscape-font-specification:JosefinSans-Regular;writing-mode:lr-tb;fill:#c2ebdf;fill-opacity:1;fill-rule:nonzero;stroke:none"
                       id="text55496"><tspan
                         x="0 17.294596 31.882391 44.135315 56.243599 65.665741 75.955719 87.237495 99.490417 111.20612 122.46723 133.62503 145.87796 157.98624 165.40411"
                         y="0"
                         id="tspan55494">Nobackupsofdata</tspan></text>
                    <g
                       id="g55498"
                       transform="translate(42.492,30.814)" />
                  </g>
                </g>
                <g
                   id="g55500"
                   transform="translate(-42.492,-30.814)" />
              </g>
            </g>
          </g>
        </g>
      </g>
    </g>
    <g
       id="g59262"
       transform="matrix(0.34554925,0.07104837,0.07104837,-0.34554925,126.07722,200.24433)">
      <g
         id="g59264">
        <g
           id="g59266">
          <g
             id="g59268"
             clip-path="url(#clipPath59272)">
            <g
               id="g59274">
              <path
                 d="M 0,0 V 357.16995 H 215.43591 V 0 Z"
                 style="fill:#f7b755;fill-opacity:1;fill-rule:nonzero;stroke:none"
                 id="path59276" />
            </g>
            <g
               id="g59278">
              <g
                 id="g59280"
                 transform="translate(-80.022,50.33)">
                <g
                   id="g59282">
                  <g
                     id="g59284"
                     transform="translate(200.588)">
                    <g
                       id="g59286"
                       transform="matrix(0.70709,0.70709,-0.70709,0.70709,0,0)">
                      <g
                         id="g59288"
                         transform="scale(16.95508)">
                        <g
                           id="g59290"
                           transform="translate(-120.566,-50.33)">
                          <text
                             xml:space="preserve"
                             transform="matrix(1,0,0,-1,120.566,50.33)"
                             style="font-variant:normal;font-weight:bold;font-size:24.7871px;font-family:'Josefin Sans';-inkscape-font-specification:JosefinSans-Bold;writing-mode:lr-tb;fill:#face8a;fill-opacity:1;fill-rule:nonzero;stroke:none"
                             id="text59294"><tspan
                               x="0"
                               y="0"
                               id="tspan59292">9</tspan></text>
                          <g
                             id="g59296"
                             transform="translate(120.566,50.33)" />
                        </g>
                      </g>
                    </g>
                    <g
                       id="g59298"
                       transform="translate(-200.588)" />
                  </g>
                </g>
                <g
                   id="g59300"
                   transform="translate(80.022,-50.33)" />
              </g>
            </g>
            <path
               d="m 19.84267,26.36243 v 304.4451 c 0,3.6008 2.91896,6.51976 6.51976,6.51976 h 162.71104 c 3.6008,0 6.51976,-2.91896 6.51976,-6.51976 V 26.36243 c 0,-3.6008 -2.91896,-6.51976 -6.51976,-6.51976 H 26.36243 c -3.6008,0 -6.51976,2.91896 -6.51976,6.51976 z"
               style="fill:none;stroke:#000000;stroke-width:0.3985;stroke-linecap:butt;stroke-linejoin:miter;stroke-miterlimit:10;stroke-dasharray:none;stroke-opacity:1"
               id="path59302" />
            <g
               id="g59304">
              <g
                 id="g59306"
                 transform="translate(28.547,303.105)">
                <g
                   id="g59308">
                  <g
                     id="g59310"
                     transform="matrix(1.69432,0,0,1.69432,-48.367753,-513.55686)">
                    <text
                       xml:space="preserve"
                       transform="matrix(1,0,0,-1,28.547,303.105)"
                       style="font-variant:normal;font-weight:bold;font-size:24.7871px;font-family:'Josefin Sans';-inkscape-font-specification:JosefinSans-Bold;writing-mode:lr-tb;fill:#000000;fill-opacity:1;fill-rule:nonzero;stroke:none"
                       id="text59314"><tspan
                         x="0"
                         y="0"
                         id="tspan59312">9</tspan></text>
                    <g
                       id="g59316"
                       transform="translate(28.547,303.105)" />
                  </g>
                  <g
                     id="g59318"
                     transform="translate(0,-30.186)">
                    <g
                       id="g59320"
                       transform="scale(2.00024)">
                      <g
                         id="g59322">
                        <g
                           id="g59324" />
                        <g
                           id="g59376">
                          <g
                             clip-path="url(#clipPath59328)"
                             id="g59374">
                            <g
                               id="g59372">
                              <g
                                 id="g59370">
                                <g
                                   transform="translate(0.051,13.86823)"
                                   id="g59368">
                                <g
                                   id="g59366">
                                <g
                                   clip-path="url(#clipPath59332)"
                                   id="g59364">
                                <g
                                   transform="translate(0,-13.789)"
                                   id="g59362">
                                <g
                                   id="g59360">
                                <g
                                   id="g59338" />
                                <g
                                   id="g59358">
                                <g
                                   clip-path="url(#clipPath59336)"
                                   id="g59356">
                                <g
                                   transform="translate(0.9445,12.86425)"
                                   id="g59346">
                                <g
                                   id="g59344">
                                <g
                                   id="g59342">
                                <path
                                   d="m 6.8835,-1.15725 c -1.574,1.543 -4.133,1.543 -5.703,0 -1.574,-1.543 -1.574,-4.051 0,-5.597 0.762,-0.746 1.773,-1.157 2.851,-1.157 1.075,0 2.09,0.411 2.852,1.157 1.574,1.546 1.574,4.054 0,5.597 z m -0.406,-5.195 c -0.653,-0.645 -1.524,-0.996 -2.446,-0.996 -0.925,0 -1.793,0.351 -2.445,0.996 -1.348,1.32 -1.348,3.473 0,4.797 0.672,0.66 1.559,0.992 2.445,0.992 0.883,0 1.77,-0.332 2.446,-0.992 1.347,-1.324 1.347,-3.477 0,-4.797 z"
                                   style="fill:#231f20;fill-opacity:1;fill-rule:nonzero;stroke:none"
                                   id="path59340" />
                                </g>
                                </g>
                                </g>
                                <g
                                   transform="translate(0,13.789)"
                                   id="g59354">
                                <g
                                   id="g59352">
                                <g
                                   id="g59350">
                                <path
                                   d="m 13.742,-11.98 -2.672,2.625 c -0.351,0.344 -0.883,0.394 -1.297,0.168 l -1.082,1.062 c 0.813,0.895 1.262,2.035 1.262,3.246 0,1.305 -0.52,2.528 -1.457,3.45 C 7.554,-0.507 6.304,0 4.976,0 3.648,0 2.398,-0.507 1.457,-1.429 0.519,-2.351 0,-3.574 0,-4.879 0,-6.183 0.519,-7.41 1.457,-8.332 c 0.972,-0.949 2.246,-1.425 3.519,-1.425 1.184,0 2.368,0.41 3.309,1.234 l 1.082,-1.063 c -0.234,-0.406 -0.18,-0.925 0.172,-1.273 l 2.676,-2.621 c 0.211,-0.207 0.484,-0.309 0.761,-0.309 0.278,0 0.555,0.102 0.766,0.309 0.422,0.414 0.422,1.086 0,1.5 z M 1.863,-7.933 c -1.715,1.683 -1.715,4.422 0,6.105 0.832,0.817 1.938,1.266 3.113,1.266 1.176,0 2.282,-0.449 3.11,-1.266 1.718,-1.683 1.718,-4.422 0,-6.105 -1.715,-1.684 -4.504,-1.684 -6.223,0 z m 11.473,-5.149 c -0.196,-0.191 -0.52,-0.191 -0.715,0 l -2.676,2.625 c -0.195,0.192 -0.195,0.508 0,0.703 0.098,0.094 0.231,0.145 0.359,0.145 0.129,0 0.258,-0.051 0.356,-0.145 l 2.676,-2.625 c 0.199,-0.195 0.199,-0.507 0,-0.703 z"
                                   style="fill:#231f20;fill-opacity:1;fill-rule:nonzero;stroke:none"
                                   id="path59348" />
                                </g>
                                </g>
                                </g>
                                </g>
                                </g>
                                </g>
                                </g>
                                </g>
                                </g>
                                </g>
                              </g>
                            </g>
                          </g>
                        </g>
                      </g>
                    </g>
                    <g
                       id="g59378"
                       transform="translate(0,30.186)" />
                  </g>
                </g>
                <g
                   id="g59380"
                   transform="translate(-28.547,-303.105)" />
              </g>
            </g>
            <g
               id="g59382">
              <g
                 id="g59384"
                 transform="translate(107.916,325.784)">
                <g
                   id="g59386">
                  <g
                     id="g59388"
                     transform="translate(23.834)">
                    <g
                       id="g59390"
                       transform="matrix(1.5645,0,0,1.5645,-206.12287,-509.68907)">
                      <text
                         xml:space="preserve"
                         transform="matrix(1,0,0,-1,131.75,325.784)"
                         style="font-variant:normal;font-weight:normal;font-size:4.9813px;font-family:'Josefin Sans';-inkscape-font-specification:JosefinSans-Regular;writing-mode:lr-tb;fill:#000000;fill-opacity:1;fill-rule:nonzero;stroke:none"
                         id="text59394"><tspan
                           x="0 2.7546589 4.0199089 6.7745681 9.3648443 11.277663 15.387236 18.102045 20.856703 22.121954 23.91024 26.625048 28.498016 29.763268 32.517925"
                           y="0"
                           id="tspan59392">nine/monitoring</tspan></text>
                      <g
                         id="g59396"
                         transform="translate(131.75,325.784)" />
                    </g>
                    <g
                       id="g59398"
                       transform="translate(-23.834)" />
                  </g>
                </g>
                <g
                   id="g59400"
                   transform="translate(-107.916,-325.784)" />
              </g>
            </g>
            <g
               id="g59402">
              <g
                 id="g59404"
                 transform="translate(51.223,235.353)">
                <g
                   id="g59406">
                  <g
                     id="g59408"
                     transform="translate(-51.223,-235.353)">
                    <text
                       xml:space="preserve"
                       transform="matrix(1,0,0,-1,66.517,235.353)"
                       style="font-variant:normal;font-weight:normal;font-size:14.3462px;font-family:'Josefin Sans';-inkscape-font-specification:JosefinSans-Regular;writing-mode:lr-tb;fill:#000000;fill-opacity:1;fill-rule:nonzero;stroke:none"
                       id="text59422"><tspan
                         x="0 13.112427 23.886423 32.393719 40.212399 48.145847 50.799892 59.2785 66.422905 74.356354 81.988533 94.971848 98.615776"
                         y="0"
                         id="tspan59410">Wedon’tknowif</tspan><tspan
                         x="-2.5910001 5.8158731 17.063293 25.470167 33.303192 38.45348 46.386929 53.846951 61.780399 66.930687 70.574623 77.116486 85.523361 90.673645 98.133667"
                         y="14.502"
                         id="tspan59412">anauthenticated</tspan><tspan
                         x="-8.9350004 -0.52812678 4.622159 9.7724447 18.179317 24.721186 31.636053 39.096077 44.49025 49.999191 58.506485 65.765663 72.709221 80.16925 83.813187 91.631859 100.13916 107.59918"
                         y="29.003"
                         id="tspan59414">attacker/developer</tspan><tspan
                         x="11.799 20.205873 26.74774 33.289608 40.74963 46.588535 52.427437 59.887463 71.708733 76.859016 84.792465"
                         y="43.505001"
                         id="tspan59416">accessedthe</tspan><tspan
                         x="17.583 26.090296 31.226236 39.044914 47.552212 55.385239 61.927105 67.077393 70.721321 78.540001"
                         y="58.006001"
                         id="tspan59418">production</tspan><tspan
                         x="11.228 18.688025 26.420626 33.507648 37.151585 42.287521 50.106201 58.03965 69.875267 77.335289 85.268738 90.419022"
                         y="72.508003"
                         id="tspan59420">environment.</tspan></text>
                    <g
                       id="g59424"
                       transform="translate(51.223,235.353)" />
                  </g>
                </g>
                <g
                   id="g59426"
                   transform="translate(-51.223,-235.353)" />
              </g>
            </g>
            <g
               id="g59428">
              <g
                 id="g59430"
                 transform="rotate(90,5.839,36.653)">
                <g
                   id="g59432">
                  <g
                     id="g59434"
                     transform="translate(-42.492,-30.814)">
                    <text
                       xml:space="preserve"
                       transform="matrix(1,0,0,-1,42.492,30.814)"
                       style="font-variant:normal;font-weight:normal;font-size:20.6626px;font-family:'Josefin Sans';-inkscape-font-specification:JosefinSans-Regular;writing-mode:lr-tb;fill:#fde9ca;fill-opacity:1;fill-rule:nonzero;stroke:none"
                       id="text59438"><tspan
                         x="0 17.294596 31.882391 43.990677 55.272453 67.525375 72.773674 80.191551 91.907242 99.283791 110.54491 121.64072 133.89365 141.29086 152.55197 168.13158 180.23985 189.662 199.08415 209.8287 218.23839"
                         y="0"
                         id="tspan59436">Noauditsforprodaccess</tspan></text>
                    <g
                       id="g59440"
                       transform="translate(42.492,30.814)" />
                  </g>
                </g>
                <g
                   id="g59442"
                   transform="translate(-42.492,-30.814)" />
              </g>
            </g>
          </g>
        </g>
      </g>
    </g>
  </g>
</svg>
